<svg id="Layer_1" data-name="Layer 1" xmlns="http://www.w3.org/2000/svg" width="1.324in" height="1.3472in" viewBox="0 0 95.33 97"><defs><style>.cls-1{fill:#832745;}.cls-2{fill:#058676;}.cls-3{fill:#d16b5a;}.cls-4{fill:#bbc0cc;}</style></defs><path class="cls-1" d="M48.1187,93.5H48.1A43.6328,43.6328,0,0,1,4.53,49.93,42.76,42.76,0,0,1,7.0483,35.4326,43.4044,43.4044,0,0,1,12.144,25.49a44.039,44.039,0,0,1,4.8233-5.8681,44.5086,44.5086,0,0,1,9.706-7.5225,43.3558,43.3558,0,0,1,9.5108-4.04A42.7817,42.7817,0,0,1,46.2974,6.4014c1.3022-.0459,2.5908-.0484,3.8525.01A43.1671,43.1671,0,0,1,80.5938,21.3232a43.7968,43.7968,0,0,1,10.9311,32.125h0A43.7379,43.7379,0,0,1,48.1187,93.5ZM48.1,9.36c-.563,0-1.1255.02-1.6885.039a39.7744,39.7744,0,0,0-9.394,1.542,40.3463,40.3463,0,0,0-8.8521,3.7608,41.51,41.51,0,0,0-9.0517,7.0156,40.9965,40.9965,0,0,0-4.4961,5.47,40.371,40.371,0,0,0-4.7456,9.2588A39.7713,39.7713,0,0,0,7.53,49.93,40.6289,40.6289,0,0,0,48.1006,90.5h.0181a40.7213,40.7213,0,0,0,40.416-37.2881A40.783,40.783,0,0,0,78.3413,23.3047,40.1911,40.1911,0,0,0,50.0063,9.4082C49.3833,9.3794,48.7363,9.36,48.1,9.36Z"/><path class="cls-2" d="M48.0991,84.0381A34.0829,34.0829,0,0,1,14.9312,42.124h0A34.0788,34.0788,0,1,1,48.0991,84.0381ZM48.04,18.8647A31.11,31.11,0,0,0,17.8511,42.8135h0A31.0788,31.0788,0,1,0,55.24,19.7085,31.3155,31.3155,0,0,0,48.04,18.8647Z"/><path class="cls-3" d="M48.1,72.94c-13.5425,0-24.56-10.3222-24.56-23.0107S34.5576,26.92,48.1,26.92,72.66,37.2422,72.66,49.93,61.6426,72.94,48.1,72.94Zm0-43.02c-11.8882,0-21.56,8.9766-21.56,20.01S36.2119,69.94,48.1,69.94,69.66,60.9639,69.66,49.93,59.9883,29.92,48.1,29.92Z"/><polygon class="cls-4" points="7.674 48.647 4.386 48.372 4.818 43.314 5.483 39.827 6.626 35.852 8.14 32.061 10.588 27.434 12.647 24.358 14.379 22.139 17.478 18.802 20.297 16.28 22.646 14.486 25.372 12.677 27.562 11.427 29.709 10.345 32.388 9.186 34.698 8.365 37.259 7.616 40.393 6.906 44.199 6.382 47.312 6.209 49.664 6.23 52.45 6.414 52.229 9.707 49.54 9.526 47.39 9.51 44.45 9.673 40.917 10.165 38.086 10.809 35.711 11.504 33.546 12.276 31.106 13.333 29.121 14.334 27.058 15.514 24.52 17.203 22.354 18.861 19.739 21.207 16.849 24.329 15.29 26.336 13.38 29.195 11.101 33.521 9.724 36.992 8.677 40.66 8.077 43.843 7.674 48.647"/><polygon class="cls-4" points="14.331 55.437 13.95 51.99 13.968 47.698 14.871 41.779 16.559 36.643 18.367 32.99 20.742 29.372 23.935 25.695 26.553 23.352 31.149 20.207 36.446 17.748 41.966 16.267 48.104 15.693 53.731 16.176 53.449 19.464 48.116 19.007 42.416 19.54 37.452 20.894 32.675 23.136 28.516 26.007 26.222 28.076 23.312 31.444 21.187 34.707 19.573 37.992 18.052 42.669 17.25 48.063 17.25 51.896 17.61 55.063 14.331 55.437"/><polygon class="cls-4" points="16.767 63.677 15.032 58.756 13.972 52.256 17.229 51.725 18.264 58.075 19.873 62.563 16.767 63.677"/><polygon class="cls-4" points="60.083 21.44 58.353 20.743 56.865 20.316 54.823 19.671 52.555 19.32 49.691 19.08 47.346 19.08 44.701 19.323 44.399 16.037 47.27 15.78 49.897 15.786 53.003 16.05 55.697 16.487 59.507 17.65 61.317 18.38 60.083 21.44"/><polygon class="cls-4" points="23.643 53.629 23.35 51.23 23.373 48.238 24.081 44.161 25.396 40.641 26.8 38.133 28.636 35.661 31.086 33.154 33.096 31.555 36.619 29.415 38.469 28.649 38.468 28.646 40.416 27.843 41.672 30.895 38.001 32.415 34.913 34.311 33.233 35.662 31.083 37.878 29.522 40.001 28.345 42.129 27.232 45.154 26.65 48.646 26.65 51.125 26.917 53.211 23.643 53.629"/><polygon class="cls-4" points="40.785 31.257 39.536 28.203 40.702 27.755 43.37 27.195 44.712 26.989 46.019 26.858 47.413 26.783 49.1 26.79 51.323 26.968 52.42 27.127 51.94 30.392 49.987 30.152 48.981 30.086 47.49 30.08 46.268 30.147 45.122 30.262 43.958 30.441 41.525 30.954 40.785 31.257"/></svg>