<svg id="Layer_1" data-name="Layer 1" xmlns="http://www.w3.org/2000/svg" width="1031.811" height="728.504" viewBox="0 0 1031.811 728.504"><defs><style>.cls-1{fill:#842745;}.cls-2{fill:#068676;}.cls-3{fill:#d16b5a;}.cls-4{fill:#bbc0cc;}.cls-5{isolation:isolate;}.cls-6{fill:#fff;}.cls-7{fill:#832645;}.cls-8{fill:#d06b5a;}.cls-9{fill:#138676;}</style></defs><g id="Charts_for_dashboard" data-name="Charts for dashboard"><path class="cls-1" d="M619.0889,478.6865h-.0508a115.4007,115.4007,0,0,1-114.5986-114.6,112.2112,112.2112,0,0,1,6.62-38.1162,114.017,114.017,0,0,1,13.4023-26.15,115.5675,115.5675,0,0,1,12.6973-15.4331,117.1446,117.1446,0,0,1,25.54-19.7954,114.0865,114.0865,0,0,1,25.0069-10.6235,112.4188,112.4188,0,0,1,26.5918-4.3579c1.55-.0542,3.1406-.1094,4.7412-.1094,1.64,0,3.4033.0444,5.3916.1352,30.7041,1.5069,59.1338,15.4371,80.0576,39.2251,20.6689,23.4981,31.1533,54.293,28.7646,84.4888h0a115.595,115.595,0,0,1-114.164,105.3369Zm-.05-226.186c-1.5489,0-3.1133.0542-4.626.1069a109.4434,109.4434,0,0,0-25.8711,4.2412,111.079,111.079,0,0,0-24.3486,10.3443,114.1411,114.1411,0,0,0-24.89,19.291,112.6174,112.6174,0,0,0-12.37,15.0356,111.0575,111.0575,0,0,0-13.05,25.4639,109.22,109.22,0,0,0-6.4438,37.102,112.4019,112.4019,0,0,0,111.6,111.6011h.0489A112.5972,112.5972,0,0,0,730.2627,373.1133h0c2.3242-29.3921-7.8906-59.3784-28.0264-82.271-20.3838-23.1738-48.0654-36.7437-77.9472-38.21C622.3516,252.5439,620.6328,252.5005,619.0391,252.5005Z"/><path class="cls-2" d="M619.2041,453.2744a89.1021,89.1021,0,1,1,86.5313-68.6435,89.174,89.174,0,0,1-86.5313,68.6435ZM535.2578,344.375a86.0829,86.0829,0,1,0,103.5615-63.9956A85.5178,85.5178,0,0,0,535.2578,344.375Z"/><path class="cls-3" d="M619.0391,423.415c-35.0088,0-63.4912-26.6123-63.4912-59.3237s28.4824-59.3242,63.4912-59.3242S682.53,331.38,682.53,364.0913,654.0479,423.415,619.0391,423.415Zm0-115.6479c-33.3545,0-60.4912,25.2671-60.4912,56.3242s27.1367,56.3237,60.4912,56.3237S679.53,395.1484,679.53,364.0913,652.3936,307.7671,619.0391,307.7671Z"/><polygon class="cls-4" points="507.588 360.412 504.3 360.137 505.423 346.823 507.151 337.697 510.135 327.272 514.079 317.353 520.511 305.163 525.931 297.056 530.432 291.275 538.579 282.485 545.989 275.844 552.154 271.129 559.319 266.37 565.206 263.01 570.848 260.169 577.732 257.188 583.942 254.988 590.672 253.023 598.706 251.199 608.707 249.815 616.986 249.355 623.223 249.409 630.55 249.897 630.329 253.19 623.098 252.706 617.064 252.656 608.958 253.106 599.23 254.458 591.5 256.216 584.955 258.127 578.888 260.279 572.245 263.158 566.766 265.917 561.005 269.208 554.026 273.847 548.046 278.425 540.84 284.891 532.901 293.465 528.572 299.034 523.303 306.924 517.04 318.813 513.232 328.412 510.346 338.529 508.682 347.351 507.588 360.412"/><polygon class="cls-4" points="531.026 378.58 530.021 369.629 530.039 358.5 532.356 343.044 536.746 329.6 541.443 320.073 547.601 310.646 555.942 301.01 562.696 294.937 574.654 286.708 588.442 280.267 602.818 276.37 619.065 274.852 633.944 276.128 633.663 279.417 619.077 278.165 603.268 279.643 589.449 283.413 576.181 289.638 564.659 297.591 558.229 303.392 550.17 312.719 544.263 321.791 539.759 330.951 535.538 343.933 533.321 358.864 533.321 369.535 534.306 378.207 531.026 378.58"/><polygon class="cls-4" points="537.432 400.106 532.893 387.369 530.042 369.895 533.3 369.363 536.126 386.688 540.537 398.993 537.432 400.106"/><polygon class="cls-4" points="652.296 284.917 647.51 282.988 643.371 281.801 637.749 280.027 631.345 279.033 623.433 278.371 616.885 278.371 609.647 279.037 609.345 275.75 616.809 275.071 623.64 275.077 631.793 275.763 638.623 276.842 644.323 278.642 648.664 279.895 653.53 281.857 652.296 284.917"/><polygon class="cls-4" points="556.057 373.682 555.29 367.585 555.313 360.002 557.085 349.542 560.443 340.469 564.024 334.027 568.713 327.672 575.046 321.165 580.16 317.065 589.237 311.516 594.211 309.457 594.207 309.447 599.432 307.293 600.688 310.345 590.619 314.516 581.978 319.821 577.193 323.672 571.16 329.889 566.747 335.896 563.392 341.957 560.236 350.537 558.591 360.41 558.591 367.479 559.33 373.264 556.057 373.682"/><polygon class="cls-4" points="598.322 311.32 597.072 308.267 599.726 307.21 606.898 305.705 610.351 305.177 613.717 304.843 617.34 304.65 621.711 304.674 624.658 304.866 627.429 305.139 630.245 305.548 629.769 308.814 627.027 308.414 624.387 308.154 621.592 307.971 617.416 307.947 613.965 308.133 610.76 308.45 607.486 308.951 600.549 310.409 598.322 311.32"/></g><g id="Accomplishments" class="cls-5"><g class="cls-5"><path class="cls-6" d="M288.5352,297.2842h-2.42l6.7539-15.5762H294.85l6.688,15.5762h-2.4644l-1.5839-3.8281h-7.3921Zm2.332-5.7422h5.83l-2.9038-7.3037Z"/><path class="cls-6" d="M310.7334,289.4961a2.5348,2.5348,0,0,0-.99-.8467,3.0247,3.0247,0,0,0-1.4083-.3408,3.23,3.23,0,0,0-1.4409.3076,3.28,3.28,0,0,0-1.0669.8252,3.6148,3.6148,0,0,0-.6714,1.1992,4.5417,4.5417,0,0,0,0,2.8594,3.6148,3.6148,0,0,0,.6714,1.1992,3.2463,3.2463,0,0,0,1.0777.8252,3.5549,3.5549,0,0,0,2.893,0,2.948,2.948,0,0,0,1.0669-.8359l1.3863,1.2539a4.485,4.485,0,0,1-1.65,1.1992,5.6076,5.6076,0,0,1-2.2442.4287,6.12,6.12,0,0,1-2.2329-.3965,5.2925,5.2925,0,0,1-1.771-1.11,5.119,5.119,0,0,1-1.1772-1.7276,5.7528,5.7528,0,0,1-.4287-2.2656,5.8232,5.8232,0,0,1,.4179-2.2441,5.1007,5.1007,0,0,1,1.166-1.7383,5.23,5.23,0,0,1,1.771-1.1221,6.0791,6.0791,0,0,1,2.211-.3955,5.8071,5.8071,0,0,1,2.1889.44,4.0061,4.0061,0,0,1,1.7271,1.2763Z"/><path class="cls-6" d="M321.6011,289.4961a2.5352,2.5352,0,0,0-.99-.8467,3.024,3.024,0,0,0-1.4082-.3408,3.23,3.23,0,0,0-1.4409.3076,3.2794,3.2794,0,0,0-1.0669.8252,3.6148,3.6148,0,0,0-.6714,1.1992,4.5417,4.5417,0,0,0,0,2.8594,3.6148,3.6148,0,0,0,.6714,1.1992,3.2469,3.2469,0,0,0,1.0776.8252,3.5551,3.5551,0,0,0,2.8931,0,2.9489,2.9489,0,0,0,1.0669-.8359l1.3862,1.2539a4.4834,4.4834,0,0,1-1.65,1.1992,5.6071,5.6071,0,0,1-2.2441.4287,6.12,6.12,0,0,1-2.2329-.3965,5.2915,5.2915,0,0,1-1.771-1.11,5.1207,5.1207,0,0,1-1.1773-1.7276,5.7546,5.7546,0,0,1-.4287-2.2656,5.8233,5.8233,0,0,1,.418-2.2441,5.1007,5.1007,0,0,1,1.166-1.7383,5.23,5.23,0,0,1,1.771-1.1221,6.0787,6.0787,0,0,1,2.211-.3955,5.8075,5.8075,0,0,1,2.1889.44,4.0061,4.0061,0,0,1,1.7271,1.2763Z"/><path class="cls-6" d="M335.7246,292.0479a5.6375,5.6375,0,0,1-.4287,2.2226,5.2817,5.2817,0,0,1-1.188,1.749,5.3654,5.3654,0,0,1-1.793,1.1436,6.2669,6.2669,0,0,1-4.4443,0,5.2406,5.2406,0,0,1-1.7817-1.1436,5.36,5.36,0,0,1-1.1773-1.749,5.6464,5.6464,0,0,1-.4287-2.2226,5.5683,5.5683,0,0,1,.4287-2.211,5.2627,5.2627,0,0,1,1.1773-1.7265,5.3192,5.3192,0,0,1,1.7817-1.1329,6.2669,6.2669,0,0,1,4.4443,0,5.4477,5.4477,0,0,1,1.793,1.1329,5.1873,5.1873,0,0,1,1.188,1.7265A5.56,5.56,0,0,1,335.7246,292.0479Zm-2.1558.0117a4.3808,4.3808,0,0,0-.2319-1.4258,3.6005,3.6005,0,0,0-.6728-1.1953,3.2424,3.2424,0,0,0-1.0923-.8233,3.7738,3.7738,0,0,0-2.98,0,3.2365,3.2365,0,0,0-1.0923.8233,3.6005,3.6005,0,0,0-.6728,1.1953,4.4973,4.4973,0,0,0,0,2.8516,3.7216,3.7216,0,0,0,.6728,1.206,3.166,3.166,0,0,0,1.0923.834,3.7738,3.7738,0,0,0,2.98,0,3.1716,3.1716,0,0,0,1.0923-.834,3.7216,3.7216,0,0,0,.6728-1.206A4.3816,4.3816,0,0,0,333.5688,292.06Z"/><path class="cls-6" d="M341.873,287.1533a3.6057,3.6057,0,0,1,2.0572-.583,3.7683,3.7683,0,0,1,1.9028.4834,3.2479,3.2479,0,0,1,1.3311,1.6065,3.7162,3.7162,0,0,1,1.4741-1.5508,4.1034,4.1034,0,0,1,2.0679-.5391,4.057,4.057,0,0,1,1.7382.3408,3.5323,3.5323,0,0,1,1.21.9131,3.7034,3.7034,0,0,1,.7148,1.3418,5.7084,5.7084,0,0,1,.231,1.65v6.4678h-2.0679V291.498a6.4182,6.4182,0,0,0-.11-1.21,3.0938,3.0938,0,0,0-.3741-1.0117,2.0234,2.0234,0,0,0-.7041-.7041,2.1559,2.1559,0,0,0-1.122-.2637,2.3452,2.3452,0,0,0-1.21.2969,2.5085,2.5085,0,0,0-.8252.7695,3.2512,3.2512,0,0,0-.4619,1.0674,5.1583,5.1583,0,0,0-.1431,1.21v5.6319h-2.0678V291.08a5.3085,5.3085,0,0,0-.11-1.1221,2.2957,2.2957,0,0,0-.374-.8691,1.8666,1.8666,0,0,0-.6822-.5713,2.2938,2.2938,0,0,0-1.0336-.209,2.3543,2.3543,0,0,0-1.9034.9346,3.8463,3.8463,0,0,0-.7588,2.497v5.544h-2.0678v-8.1836q0-.4189-.0225-1.0781-.0219-.6607-.0659-1.1661h1.958q.044.3955.0659.8907t.0225.8252h.0659A3.52,3.52,0,0,1,341.873,287.1533Z"/><path class="cls-6" d="M360.1665,302.5645h-2.0679V286.8564h2.024v1.628h.0659a3.8491,3.8491,0,0,1,1.4809-1.375,4.6255,4.6255,0,0,1,2.2715-.5391,5.2318,5.2318,0,0,1,2.1182.418,4.8769,4.8769,0,0,1,1.646,1.166,5.2636,5.2636,0,0,1,1.0639,1.749,6.0839,6.0839,0,0,1,.3736,2.1446,6.1767,6.1767,0,0,1-.3736,2.1562,5.3133,5.3133,0,0,1-1.0532,1.76,4.8655,4.8655,0,0,1-1.646,1.1777,5.3082,5.3082,0,0,1-2.1723.4287,4.73,4.73,0,0,1-2.107-.4844,3.8137,3.8137,0,0,1-1.5581-1.3632h-.0659Zm6.8638-10.5166a4.5585,4.5585,0,0,0-.22-1.4073,3.5858,3.5858,0,0,0-.66-1.21,3.1689,3.1689,0,0,0-1.0889-.8369,3.4836,3.4836,0,0,0-1.5073-.3077,3.3216,3.3216,0,0,0-1.4409.3077,3.3943,3.3943,0,0,0-1.1109.8369,3.84,3.84,0,0,0-.7148,1.21,4.16,4.16,0,0,0,0,2.8594,3.7146,3.7146,0,0,0,.7148,1.1992,3.461,3.461,0,0,0,1.1109.8252,3.3215,3.3215,0,0,0,1.4409.3076,3.375,3.375,0,0,0,1.5073-.3193,3.2685,3.2685,0,0,0,1.0889-.8467,3.5868,3.5868,0,0,0,.66-1.21A4.56,4.56,0,0,0,367.03,292.0479Z"/><path class="cls-6" d="M374.1582,297.2842H372.09V280.6523h2.0679Z"/><path class="cls-6" d="M380.186,283.0938a1.2321,1.2321,0,0,1-.4043.9462,1.3749,1.3749,0,0,1-.9707.3741,1.32,1.32,0,0,1-.96-.3848,1.2614,1.2614,0,0,1-.3926-.9355,1.2877,1.2877,0,0,1,.3926-.9571,1.3237,1.3237,0,0,1,.96-.3847,1.36,1.36,0,0,1,.9707.3847A1.2687,1.2687,0,0,1,380.186,283.0938Zm-.33,14.19h-2.0679V286.8564h2.0679Z"/><path class="cls-6" d="M389.0957,289.4961a2.7026,2.7026,0,0,0-.99-.9346,2.8376,2.8376,0,0,0-1.43-.3633,3.254,3.254,0,0,0-.7041.0772,2.063,2.063,0,0,0-.627.2422,1.3233,1.3233,0,0,0-.44.4179,1.1181,1.1181,0,0,0-.1651.627,1.0419,1.0419,0,0,0,.5938.9785,7.2735,7.2735,0,0,0,1.7822.583,11.2226,11.2226,0,0,1,1.3858.418,4.37,4.37,0,0,1,1.1113.6055,2.6062,2.6062,0,0,1,.7368.8691,2.529,2.529,0,0,1,.2642,1.1875,3.2,3.2,0,0,1-.3521,1.5625,3.068,3.068,0,0,1-.935,1.0449,3.83,3.83,0,0,1-1.3311.583,6.7087,6.7087,0,0,1-1.54.1758,6.0991,6.0991,0,0,1-2.3208-.4619,4.5432,4.5432,0,0,1-1.8814-1.4082l1.4741-1.2539a3.365,3.365,0,0,0,1.1553,1.0342,3.224,3.224,0,0,0,1.6167.4179,3.6276,3.6276,0,0,0,.7593-.0771,2.1833,2.1833,0,0,0,.66-.2529,1.2765,1.2765,0,0,0,.6494-1.1885,1.1453,1.1453,0,0,0-.6934-1.0781,9.31,9.31,0,0,0-2.0347-.6592c-.352-.0889-.708-.1944-1.0673-.3194a3.5567,3.5567,0,0,1-.979-.5166,2.5912,2.5912,0,0,1-.7149-.8252,2.4833,2.4833,0,0,1-.2749-1.2216,2.887,2.887,0,0,1,.3408-1.44,2.9746,2.9746,0,0,1,.8911-.99,3.9223,3.9223,0,0,1,1.254-.5723,5.6587,5.6587,0,0,1,1.4521-.1865,5.5368,5.5368,0,0,1,2.167.44,3.5935,3.5935,0,0,1,1.6172,1.2763Z"/><path class="cls-6" d="M395.3872,288.44a3.22,3.22,0,0,1,1.2759-1.32,3.8159,3.8159,0,0,1,2.0239-.55,4.0574,4.0574,0,0,1,1.7383.3408,3.5323,3.5323,0,0,1,1.21.9131,3.7049,3.7049,0,0,1,.7148,1.3418,5.7084,5.7084,0,0,1,.231,1.65v6.4678h-2.0679v-5.7783a7.136,7.136,0,0,0-.0991-1.2129,2.94,2.94,0,0,0-.3628-1.0147,2.0037,2.0037,0,0,0-.7149-.7051,2.3063,2.3063,0,0,0-1.1772-.2646,2.5333,2.5333,0,0,0-2.0239.9365,3.7531,3.7531,0,0,0-.792,2.5039v5.5352h-2.0679V280.6523h2.0679V288.44Z"/><path class="cls-6" d="M409.3682,287.1533a3.6053,3.6053,0,0,1,2.0571-.583,3.7683,3.7683,0,0,1,1.9028.4834,3.2479,3.2479,0,0,1,1.3311,1.6065,3.7162,3.7162,0,0,1,1.4741-1.5508,4.1034,4.1034,0,0,1,2.0679-.5391,4.0574,4.0574,0,0,1,1.7383.3408,3.5319,3.5319,0,0,1,1.21.9131,3.7051,3.7051,0,0,1,.7149,1.3418,5.7084,5.7084,0,0,1,.2309,1.65v6.4678h-2.0679V291.498a6.4182,6.4182,0,0,0-.11-1.21,3.0937,3.0937,0,0,0-.374-1.0117,2.0251,2.0251,0,0,0-.7041-.7041,2.1565,2.1565,0,0,0-1.1221-.2637,2.3454,2.3454,0,0,0-1.21.2969,2.5085,2.5085,0,0,0-.8252.7695,3.2512,3.2512,0,0,0-.4619,1.0674,5.1583,5.1583,0,0,0-.1431,1.21v5.6319h-2.0678V291.08a5.3019,5.3019,0,0,0-.11-1.1221,2.2957,2.2957,0,0,0-.374-.8691,1.8671,1.8671,0,0,0-.6821-.5713,2.2943,2.2943,0,0,0-1.0337-.209,2.3543,2.3543,0,0,0-1.9034.9346,3.8462,3.8462,0,0,0-.7587,2.497v5.544H406.08v-8.1836q0-.4189-.0225-1.0781-.0219-.6607-.0659-1.1661h1.958q.0439.3955.0659.8907t.0225.8252h.0659A3.52,3.52,0,0,1,409.3682,287.1533Z"/><path class="cls-6" d="M435.3389,291.9824v.3516a2.8453,2.8453,0,0,1-.022.3525h-8.294a3.0841,3.0841,0,0,0,.2969,1.2344,3.2578,3.2578,0,0,0,.7373,1.0049,3.4176,3.4176,0,0,0,1.0669.666,3.7243,3.7243,0,0,0,3.1128-.2217,3.7219,3.7219,0,0,0,1.21-1.1221l1.4516,1.1661a5.1966,5.1966,0,0,1-1.9687,1.6328,6.3141,6.3141,0,0,1-4.7193.1269,5.075,5.075,0,0,1-1.7378-1.11,5.148,5.148,0,0,1-1.144-1.7276,5.8161,5.8161,0,0,1-.418-2.2441,5.9749,5.9749,0,0,1,.4077-2.2324,5.1014,5.1014,0,0,1,1.1353-1.749,5.1965,5.1965,0,0,1,1.72-1.1329,5.9028,5.9028,0,0,1,4.2222-.0332,4.2928,4.2928,0,0,1,1.5874,1.0782,4.8456,4.8456,0,0,1,1.0029,1.705A6.7488,6.7488,0,0,1,435.3389,291.9824Zm-2.1118-.8359a3.9391,3.9391,0,0,0-.209-1.1553,2.6557,2.6557,0,0,0-.55-.9346,2.5864,2.5864,0,0,0-.9024-.6279,3.204,3.204,0,0,0-1.2646-.2305,3.3545,3.3545,0,0,0-1.2432.2305,3.2262,3.2262,0,0,0-1.0122.6279,3.3081,3.3081,0,0,0-.7041.9346,2.9857,2.9857,0,0,0-.3189,1.1553Z"/><path class="cls-6" d="M440.0688,286.8564q.0439.3955.066.8907t.0224.8252h.0659a3.0439,3.0439,0,0,1,.5391-.7813,3.8925,3.8925,0,0,1,.7808-.6377,3.8358,3.8358,0,0,1,.9682-.4287,3.91,3.91,0,0,1,1.1-.1543,4.0574,4.0574,0,0,1,1.7383.3408,3.5323,3.5323,0,0,1,1.21.9131,3.7049,3.7049,0,0,1,.7148,1.3418,5.7084,5.7084,0,0,1,.231,1.65v6.4678H445.437V291.498a7.1088,7.1088,0,0,0-.0991-1.21,2.9139,2.9139,0,0,0-.3628-1.0117,1.9707,1.9707,0,0,0-.7261-.7041,2.3777,2.3777,0,0,0-1.188-.2637,2.5026,2.5026,0,0,0-2.0131.9346,3.7719,3.7719,0,0,0-.7808,2.497v5.544h-2.0679v-8.1836q0-.4189-.0224-1.0781-.022-.6607-.066-1.1661Z"/><path class="cls-6" d="M456.1069,288.55h-2.7724v5.418a2.0541,2.0541,0,0,0,.352,1.3486,1.41,1.41,0,0,0,1.1221.4063,3.4652,3.4652,0,0,0,.6162-.0606,2.57,2.57,0,0,0,.5938-.1816l.0659,1.6933a4.9834,4.9834,0,0,1-.8247.209,5.5051,5.5051,0,0,1-.9351.0772,2.9816,2.9816,0,0,1-2.2549-.8135,3.4032,3.4032,0,0,1-.7812-2.4424V288.55h-2.002v-1.6934h2.002v-2.9921h2.0459v2.9921h2.7724Z"/><path class="cls-6" d="M463.8726,289.4961a2.7029,2.7029,0,0,0-.99-.9346,2.8373,2.8373,0,0,0-1.43-.3633,3.2547,3.2547,0,0,0-.7041.0772,2.0634,2.0634,0,0,0-.6269.2422,1.3246,1.3246,0,0,0-.44.4179,1.1189,1.1189,0,0,0-.165.627,1.0419,1.0419,0,0,0,.5938.9785,7.272,7.272,0,0,0,1.7822.583,11.2261,11.2261,0,0,1,1.3857.418,4.37,4.37,0,0,1,1.1113.6055,2.6054,2.6054,0,0,1,.7369.8691,2.53,2.53,0,0,1,.2641,1.1875,3.2008,3.2008,0,0,1-.352,1.5625,3.0682,3.0682,0,0,1-.9351,1.0449,3.83,3.83,0,0,1-1.331.583,6.71,6.71,0,0,1-1.54.1758,6.1,6.1,0,0,1-2.3208-.4619A4.5429,4.5429,0,0,1,457.03,295.7l1.4741-1.2539a3.3641,3.3641,0,0,0,1.1553,1.0342,3.2237,3.2237,0,0,0,1.6167.4179,3.6266,3.6266,0,0,0,.7592-.0771,2.1823,2.1823,0,0,0,.66-.2529,1.276,1.276,0,0,0,.6494-1.1885,1.1453,1.1453,0,0,0-.6933-1.0781,9.3114,9.3114,0,0,0-2.0347-.6592c-.3521-.0889-.708-.1944-1.0674-.3194a3.5582,3.5582,0,0,1-.979-.5166,2.5922,2.5922,0,0,1-.7148-.8252,2.4833,2.4833,0,0,1-.2749-1.2216,2.886,2.886,0,0,1,.3408-1.44,2.9736,2.9736,0,0,1,.8911-.99,3.9217,3.9217,0,0,1,1.2539-.5723,5.6589,5.6589,0,0,1,1.4522-.1865,5.5359,5.5359,0,0,1,2.1669.44,3.5929,3.5929,0,0,1,1.6172,1.2763Z"/><path class="cls-6" d="M286.0054,299.4844v-1.1006H466.2266v1.1006Z"/></g></g><rect id="Rectangle_55" data-name="Rectangle 55" class="cls-7" x="300.0053" y="331.2843" width="24" height="24"/><rect id="Rectangle_56" data-name="Rectangle 56" class="cls-8" x="300.0053" y="372.2843" width="24" height="24"/><rect id="Rectangle_57" data-name="Rectangle 57" class="cls-9" x="300.0053" y="413.2843" width="24" height="24"/><g id="Needs" class="cls-5"><g class="cls-5"><path class="cls-6" d="M353.5654,335.0039l7.52,11.58h.04v-11.58h1.8v14.28h-2.08l-7.46-11.46h-.04v11.46h-1.8v-14.28Z"/><path class="cls-6" d="M373.0449,348.624a4.6927,4.6927,0,0,1-2.92.88,5.3139,5.3139,0,0,1-2.15-.3994,4.2433,4.2433,0,0,1-1.53-1.12,4.7611,4.7611,0,0,1-.93-1.72,8.2877,8.2877,0,0,1-.35-2.1806,6.2208,6.2208,0,0,1,.36-2.16,5.1624,5.1624,0,0,1,1.01-1.6992,4.5736,4.5736,0,0,1,1.54-1.12,4.7029,4.7029,0,0,1,1.95-.4,4.2437,4.2437,0,0,1,2.29.57,4.5328,4.5328,0,0,1,1.46,1.45,5.726,5.726,0,0,1,.76,1.92,8.219,8.219,0,0,1,.17,1.98h-7.74a4.0937,4.0937,0,0,0,.16,1.29,2.9124,2.9124,0,0,0,.58,1.08,2.8591,2.8591,0,0,0,1.02.75,3.5253,3.5253,0,0,0,1.46.28,2.9437,2.9437,0,0,0,1.77-.5,2.4153,2.4153,0,0,0,.91-1.5205h1.68A4.1326,4.1326,0,0,1,373.0449,348.624Zm-.41-6.64a2.8967,2.8967,0,0,0-2.71-1.78,2.9578,2.9578,0,0,0-1.19.2305,2.7471,2.7471,0,0,0-.91.63,3.0145,3.0145,0,0,0-.6.93,3.5429,3.5429,0,0,0-.26,1.13h5.94A3.4826,3.4826,0,0,0,372.6348,341.9844Z"/><path class="cls-6" d="M383.7852,348.624a4.6932,4.6932,0,0,1-2.92.88,5.3143,5.3143,0,0,1-2.15-.3994,4.2421,4.2421,0,0,1-1.53-1.12,4.76,4.76,0,0,1-.93-1.72,8.28,8.28,0,0,1-.35-2.1806,6.2208,6.2208,0,0,1,.36-2.16,5.1641,5.1641,0,0,1,1.01-1.6992,4.5746,4.5746,0,0,1,1.54-1.12,4.7029,4.7029,0,0,1,1.95-.4,4.244,4.244,0,0,1,2.29.57,4.5335,4.5335,0,0,1,1.46,1.45,5.7239,5.7239,0,0,1,.76,1.92,8.214,8.214,0,0,1,.17,1.98h-7.74a4.0908,4.0908,0,0,0,.16,1.29,2.9139,2.9139,0,0,0,.58,1.08,2.86,2.86,0,0,0,1.02.75,3.5253,3.5253,0,0,0,1.46.28,2.9435,2.9435,0,0,0,1.7695-.5,2.4154,2.4154,0,0,0,.91-1.5205h1.68A4.1335,4.1335,0,0,1,383.7852,348.624Zm-.41-6.64a2.8965,2.8965,0,0,0-2.71-1.78,2.9578,2.9578,0,0,0-1.19.2305,2.7492,2.7492,0,0,0-.91.63,3.0145,3.0145,0,0,0-.6.93,3.5428,3.5428,0,0,0-.26,1.13h5.94A3.48,3.48,0,0,0,383.375,341.9844Z"/><path class="cls-6" d="M394.7441,349.2842v-1.4h-.04a2.4959,2.4959,0,0,1-1.32,1.24,5.0453,5.0453,0,0,1-1.98.38,4.6674,4.6674,0,0,1-2.09-.4394,4.2828,4.2828,0,0,1-1.48-1.1807,5.1384,5.1384,0,0,1-.89-1.72,7.0622,7.0622,0,0,1-.3-2.08,7.2923,7.2923,0,0,1,.29-2.08,4.8987,4.8987,0,0,1,.88-1.71,4.2524,4.2524,0,0,1,1.48-1.16,4.712,4.712,0,0,1,2.07-.43,5.0884,5.0884,0,0,1,.86.08,4.4376,4.4376,0,0,1,.92.2695,3.9722,3.9722,0,0,1,.87.5,2.7422,2.7422,0,0,1,.69.7705h.04v-5.32h1.7v14.28Zm-6.11-3.67a3.7864,3.7864,0,0,0,.58,1.2295,2.8318,2.8318,0,0,0,1,.86,3.03,3.03,0,0,0,1.43.32,2.8038,2.8038,0,0,0,2.44-1.2305,3.7238,3.7238,0,0,0,.55-1.25,6.0595,6.0595,0,0,0-.01-2.89,3.635,3.635,0,0,0-.57-1.25,2.9041,2.9041,0,0,0-1.01-.87,3.16,3.16,0,0,0-1.5-.33,2.92,2.92,0,0,0-1.46.34,2.7146,2.7146,0,0,0-.96.9,3.9,3.9,0,0,0-.52,1.28,6.779,6.779,0,0,0-.16,1.4795A5.2723,5.2723,0,0,0,388.6343,345.6143Z"/><path class="cls-6" d="M400.3643,346.9746a1.8034,1.8034,0,0,0,.63.6192,2.8086,2.8086,0,0,0,.88.33,4.9851,4.9851,0,0,0,1.01.1006,6.2262,6.2262,0,0,0,.84-.06,3.0986,3.0986,0,0,0,.81-.22,1.5121,1.5121,0,0,0,.61-.47,1.2536,1.2536,0,0,0,.24-.79,1.1318,1.1318,0,0,0-.5-1,4.2481,4.2481,0,0,0-1.25-.55q-.75-.211-1.63-.3809a8.3609,8.3609,0,0,1-1.63-.4795,3.3839,3.3839,0,0,1-1.25-.87,2.2578,2.2578,0,0,1-.5-1.56,2.48,2.48,0,0,1,.35-1.3408,2.8633,2.8633,0,0,1,.9-.9092,4.1325,4.1325,0,0,1,1.24-.52,5.71,5.71,0,0,1,1.37-.17,8.1152,8.1152,0,0,1,1.62.15,3.7513,3.7513,0,0,1,1.31.52,2.7,2.7,0,0,1,.91,1,3.7987,3.7987,0,0,1,.4,1.57h-1.7a1.63,1.63,0,0,0-.82-1.36,2.5745,2.5745,0,0,0-.75-.29,3.8908,3.8908,0,0,0-.83-.09,5.0621,5.0621,0,0,0-.77.06,2.5449,2.5449,0,0,0-.71.21,1.4315,1.4315,0,0,0-.52.3994,1.0107,1.0107,0,0,0-.2.65.9538.9538,0,0,0,.31.7295,2.4751,2.4751,0,0,0,.79.4805,6.81,6.81,0,0,0,1.08.3193q.6006.13,1.2.2705.64.1407,1.25.34a4.1023,4.1023,0,0,1,1.08.53,2.5931,2.5931,0,0,1,.76.83,2.4377,2.4377,0,0,1,.29,1.24,2.8771,2.8771,0,0,1-.39,1.56,3.0432,3.0432,0,0,1-1.0195,1,4.29,4.29,0,0,1-1.42.53,8.433,8.433,0,0,1-1.57.1494,7.2708,7.2708,0,0,1-1.64-.18,4.0217,4.0217,0,0,1-1.38-.59,3.0114,3.0114,0,0,1-.96-1.08,3.7343,3.7343,0,0,1-.4-1.63h1.7A1.9139,1.9139,0,0,0,400.3643,346.9746Z"/></g></g><g id="Wants" class="cls-5"><g class="cls-5"><path class="cls-6" d="M362.4854,389.2842l-3.26-12h-.04l-3.3,12h-1.98l-3.66-14.28h1.94l2.8,11.88h.04l3.2-11.88h2.06l3.16,11.88h.04l2.9-11.88h1.9l-3.82,14.28Z"/><path class="cls-6" d="M378.2256,389.2412a2.3868,2.3868,0,0,1-1.22.2627,1.4613,1.4613,0,0,1-1.05-.37,1.6075,1.6075,0,0,1-.39-1.21,4.0557,4.0557,0,0,1-1.63,1.21,5.6272,5.6272,0,0,1-3.34.21,3.07,3.07,0,0,1-1.09-.5,2.3859,2.3859,0,0,1-.73-.89,2.9892,2.9892,0,0,1-.27-1.33,3.0334,3.0334,0,0,1,.3-1.4394,2.6183,2.6183,0,0,1,.79-.91,3.62,3.62,0,0,1,1.12-.53q.63-.18,1.29-.3.6994-.1406,1.3295-.21a7.4094,7.4094,0,0,0,1.11-.2,1.8507,1.8507,0,0,0,.76-.38.93.93,0,0,0,.28-.73,1.6988,1.6988,0,0,0-.21-.8994,1.4467,1.4467,0,0,0-.54-.5205,2.178,2.178,0,0,0-.74-.2393,5.5925,5.5925,0,0,0-.81-.06,3.5934,3.5934,0,0,0-1.8.41,1.7405,1.7405,0,0,0-.78,1.55h-1.7a3.6668,3.6668,0,0,1,.4-1.62,3.0341,3.0341,0,0,1,.96-1.0693,4.0271,4.0271,0,0,1,1.37-.5908,7.2777,7.2777,0,0,1,1.65-.18,9.7182,9.7182,0,0,1,1.39.1,3.6624,3.6624,0,0,1,1.25.4092,2.409,2.409,0,0,1,.9.8682,2.777,2.777,0,0,1,.34,1.457v5.3086a3.9471,3.9471,0,0,0,.07.8779q.07.28.47.2793a1.6888,1.6888,0,0,0,.52-.1Zm-2.76-5.3174a2.1131,2.1131,0,0,1-.84.3506q-.52.11-1.09.18t-1.15.16a4.2224,4.2224,0,0,0-1.04.29,1.8868,1.8868,0,0,0-.75.57,1.5939,1.5939,0,0,0-.29,1.01,1.3816,1.3816,0,0,0,.17.71,1.42,1.42,0,0,0,.44.47,1.8347,1.8347,0,0,0,.63.26,3.4743,3.4743,0,0,0,.76.08,4.0274,4.0274,0,0,0,1.44-.2295,3.029,3.029,0,0,0,.98-.58,2.2874,2.2874,0,0,0,.56-.76,1.9213,1.9213,0,0,0,.18-.77Z"/><path class="cls-6" d="M381.4053,378.9443v1.64h.04a3.58,3.58,0,0,1,3.36-1.88,4.4913,4.4913,0,0,1,1.7.28,2.7922,2.7922,0,0,1,1.1.78,2.8959,2.8959,0,0,1,.59,1.19,6.4,6.4,0,0,1,.17,1.53v6.8h-1.7v-7a2.0544,2.0544,0,0,0-.56-1.52,2.0792,2.0792,0,0,0-1.54-.56,3.4629,3.4629,0,0,0-1.35.24,2.5346,2.5346,0,0,0-.95.68,2.9237,2.9237,0,0,0-.57,1.03,4.1823,4.1823,0,0,0-.19,1.29v5.84h-1.7v-10.34Z"/><path class="cls-6" d="M395.3452,378.9443v1.5h-2.06v6.42a1.8527,1.8527,0,0,0,.05.4795.4928.4928,0,0,0,.19.28.8248.8248,0,0,0,.39.13,5.5442,5.5442,0,0,0,.65.03h.78v1.5h-1.3a6.1371,6.1371,0,0,1-1.13-.09,1.6644,1.6644,0,0,1-.76-.33,1.4111,1.4111,0,0,1-.43-.68,3.92,3.92,0,0,1-.14-1.16v-6.58h-1.76v-1.5h1.76v-3.1005h1.7v3.1005Z"/><path class="cls-6" d="M398.5249,386.9746a1.8036,1.8036,0,0,0,.63.6192,2.8067,2.8067,0,0,0,.88.33,4.9841,4.9841,0,0,0,1.01.1006,6.2288,6.2288,0,0,0,.84-.06,3.0978,3.0978,0,0,0,.81-.22,1.5131,1.5131,0,0,0,.61-.47,1.2542,1.2542,0,0,0,.24-.79,1.1318,1.1318,0,0,0-.5-1,4.2481,4.2481,0,0,0-1.25-.55q-.75-.211-1.63-.3809a8.36,8.36,0,0,1-1.63-.4795,3.3839,3.3839,0,0,1-1.25-.87,2.2578,2.2578,0,0,1-.5-1.56,2.48,2.48,0,0,1,.35-1.3408,2.8633,2.8633,0,0,1,.9-.9092,4.1319,4.1319,0,0,1,1.24-.52,5.7107,5.7107,0,0,1,1.37-.17,8.1145,8.1145,0,0,1,1.62.15,3.7513,3.7513,0,0,1,1.31.52,2.7,2.7,0,0,1,.91,1,3.8018,3.8018,0,0,1,.4,1.57h-1.7a1.63,1.63,0,0,0-.82-1.36,2.5723,2.5723,0,0,0-.75-.29,3.8906,3.8906,0,0,0-.83-.09,5.0624,5.0624,0,0,0-.77.06,2.5452,2.5452,0,0,0-.71.21,1.4306,1.4306,0,0,0-.52.3994,1.0107,1.0107,0,0,0-.2.65.9541.9541,0,0,0,.31.7295,2.4757,2.4757,0,0,0,.79.4805,6.8082,6.8082,0,0,0,1.0795.3193q.6006.13,1.2.2705.64.1407,1.25.34a4.1008,4.1008,0,0,1,1.08.53,2.5946,2.5946,0,0,1,.76.83,2.4388,2.4388,0,0,1,.29,1.24,2.878,2.878,0,0,1-.39,1.56,3.0441,3.0441,0,0,1-1.02,1,4.2915,4.2915,0,0,1-1.4205.53,8.4322,8.4322,0,0,1-1.57.1494,7.27,7.27,0,0,1-1.64-.18,4.0222,4.0222,0,0,1-1.38-.59,3.0124,3.0124,0,0,1-.96-1.08,3.7343,3.7343,0,0,1-.4-1.63h1.7A1.9139,1.9139,0,0,0,398.5249,386.9746Z"/></g></g><g id="Wellness" class="cls-5"><g class="cls-5"><path class="cls-6" d="M362.4854,433.2842l-3.26-12h-.04l-3.3,12h-1.98l-3.66-14.28h1.94l2.8,11.88h.04l3.2-11.88h2.06l3.16,11.88h.04l2.9-11.88h1.9l-3.82,14.28Z"/><path class="cls-6" d="M375.9854,432.624a4.6932,4.6932,0,0,1-2.92.88,5.3143,5.3143,0,0,1-2.15-.3994,4.2421,4.2421,0,0,1-1.53-1.12,4.76,4.76,0,0,1-.93-1.72,8.28,8.28,0,0,1-.35-2.1806,6.2208,6.2208,0,0,1,.36-2.16,5.1641,5.1641,0,0,1,1.01-1.6992,4.5746,4.5746,0,0,1,1.54-1.12,4.7029,4.7029,0,0,1,1.95-.4,4.244,4.244,0,0,1,2.29.57,4.5335,4.5335,0,0,1,1.46,1.45,5.726,5.726,0,0,1,.76,1.92,8.214,8.214,0,0,1,.17,1.98h-7.74a4.0908,4.0908,0,0,0,.16,1.29,2.9139,2.9139,0,0,0,.58,1.08,2.86,2.86,0,0,0,1.02.75,3.5253,3.5253,0,0,0,1.46.28,2.9435,2.9435,0,0,0,1.7695-.5,2.4154,2.4154,0,0,0,.91-1.5205h1.68A4.1335,4.1335,0,0,1,375.9854,432.624Zm-.41-6.64a2.8965,2.8965,0,0,0-2.71-1.78,2.9578,2.9578,0,0,0-1.19.2305,2.7492,2.7492,0,0,0-.91.63,3.0145,3.0145,0,0,0-.6.93,3.5428,3.5428,0,0,0-.26,1.13h5.94A3.48,3.48,0,0,0,375.5752,425.9844Z"/><path class="cls-6" d="M381.2051,419.0039v14.28h-1.7v-14.28Z"/><path class="cls-6" d="M385.645,419.0039v14.28h-1.7v-14.28Z"/><path class="cls-6" d="M389.8843,422.9443v1.64h.04a3.58,3.58,0,0,1,3.36-1.88,4.4913,4.4913,0,0,1,1.7.28,2.7922,2.7922,0,0,1,1.1.78,2.8959,2.8959,0,0,1,.59,1.19,6.4,6.4,0,0,1,.17,1.53v6.8h-1.7v-7a2.0544,2.0544,0,0,0-.56-1.52,2.0792,2.0792,0,0,0-1.54-.56,3.4629,3.4629,0,0,0-1.35.24,2.5354,2.5354,0,0,0-.95.68,2.9237,2.9237,0,0,0-.57,1.03,4.1823,4.1823,0,0,0-.19,1.29v5.84h-1.7v-10.34Z"/><path class="cls-6" d="M406.7246,432.624a4.6929,4.6929,0,0,1-2.92.88,5.3136,5.3136,0,0,1-2.15-.3994,4.2433,4.2433,0,0,1-1.53-1.12,4.7611,4.7611,0,0,1-.93-1.72,8.2877,8.2877,0,0,1-.35-2.1806,6.2208,6.2208,0,0,1,.36-2.16,5.1607,5.1607,0,0,1,1.01-1.6992,4.5736,4.5736,0,0,1,1.54-1.12,4.7029,4.7029,0,0,1,1.95-.4,4.2437,4.2437,0,0,1,2.29.57,4.5328,4.5328,0,0,1,1.46,1.45,5.726,5.726,0,0,1,.76,1.92,8.219,8.219,0,0,1,.17,1.98h-7.74a4.0937,4.0937,0,0,0,.16,1.29,2.9124,2.9124,0,0,0,.58,1.08,2.8591,2.8591,0,0,0,1.02.75,3.5252,3.5252,0,0,0,1.46.28,2.9438,2.9438,0,0,0,1.77-.5,2.4153,2.4153,0,0,0,.91-1.5205h1.68A4.1326,4.1326,0,0,1,406.7246,432.624Zm-.41-6.64a2.8967,2.8967,0,0,0-2.71-1.78,2.9578,2.9578,0,0,0-1.19.2305,2.7471,2.7471,0,0,0-.91.63,3.0145,3.0145,0,0,0-.6.93,3.5429,3.5429,0,0,0-.26,1.13h5.94A3.4826,3.4826,0,0,0,406.3145,425.9844Z"/><path class="cls-6" d="M411.4443,430.9746a1.8045,1.8045,0,0,0,.63.6192,2.8077,2.8077,0,0,0,.88.33,4.9851,4.9851,0,0,0,1.01.1006,6.2273,6.2273,0,0,0,.84-.06,3.0986,3.0986,0,0,0,.81-.22,1.5128,1.5128,0,0,0,.61-.47,1.2536,1.2536,0,0,0,.24-.79,1.1318,1.1318,0,0,0-.5-1,4.2481,4.2481,0,0,0-1.25-.55q-.75-.211-1.63-.3809a8.3609,8.3609,0,0,1-1.63-.4795,3.3839,3.3839,0,0,1-1.25-.87,2.2578,2.2578,0,0,1-.5-1.56,2.48,2.48,0,0,1,.35-1.3408,2.8633,2.8633,0,0,1,.9-.9092,4.133,4.133,0,0,1,1.24-.52,5.7109,5.7109,0,0,1,1.37-.17,8.1152,8.1152,0,0,1,1.62.15,3.7508,3.7508,0,0,1,1.31.52,2.7,2.7,0,0,1,.91,1,3.7987,3.7987,0,0,1,.4,1.57h-1.7a1.6307,1.6307,0,0,0-.82-1.36,2.5745,2.5745,0,0,0-.75-.29,3.8915,3.8915,0,0,0-.83-.09,5.0611,5.0611,0,0,0-.77.06,2.5449,2.5449,0,0,0-.71.21,1.4306,1.4306,0,0,0-.52.3994,1.0107,1.0107,0,0,0-.2.65.9538.9538,0,0,0,.31.7295,2.4751,2.4751,0,0,0,.79.4805,6.81,6.81,0,0,0,1.08.3193q.6006.13,1.2.2705.64.1407,1.25.34a4.1023,4.1023,0,0,1,1.08.53,2.5942,2.5942,0,0,1,.76.83,2.4377,2.4377,0,0,1,.29,1.24,2.8771,2.8771,0,0,1-.39,1.56,3.0432,3.0432,0,0,1-1.02,1,4.291,4.291,0,0,1-1.42.53,8.433,8.433,0,0,1-1.57.1494,7.27,7.27,0,0,1-1.64-.18,4.0222,4.0222,0,0,1-1.38-.59,3.0112,3.0112,0,0,1-.96-1.08,3.7315,3.7315,0,0,1-.4-1.63h1.7A1.9149,1.9149,0,0,0,411.4443,430.9746Z"/><path class="cls-6" d="M421.4443,430.9746a1.8045,1.8045,0,0,0,.63.6192,2.8077,2.8077,0,0,0,.88.33,4.9851,4.9851,0,0,0,1.01.1006,6.2273,6.2273,0,0,0,.84-.06,3.0986,3.0986,0,0,0,.81-.22,1.5128,1.5128,0,0,0,.61-.47,1.2536,1.2536,0,0,0,.24-.79,1.1318,1.1318,0,0,0-.5-1,4.2481,4.2481,0,0,0-1.25-.55q-.75-.211-1.63-.3809a8.3609,8.3609,0,0,1-1.63-.4795,3.3839,3.3839,0,0,1-1.25-.87,2.2578,2.2578,0,0,1-.5-1.56,2.48,2.48,0,0,1,.35-1.3408,2.8633,2.8633,0,0,1,.9-.9092,4.133,4.133,0,0,1,1.24-.52,5.7109,5.7109,0,0,1,1.37-.17,8.1152,8.1152,0,0,1,1.62.15,3.7508,3.7508,0,0,1,1.31.52,2.7,2.7,0,0,1,.91,1,3.7987,3.7987,0,0,1,.4,1.57h-1.7a1.6307,1.6307,0,0,0-.82-1.36,2.5745,2.5745,0,0,0-.75-.29,3.8915,3.8915,0,0,0-.83-.09,5.0611,5.0611,0,0,0-.77.06,2.5449,2.5449,0,0,0-.71.21,1.4306,1.4306,0,0,0-.52.3994,1.0107,1.0107,0,0,0-.2.65.9538.9538,0,0,0,.31.7295,2.4751,2.4751,0,0,0,.79.4805,6.81,6.81,0,0,0,1.08.3193q.6006.13,1.2.2705.64.1407,1.25.34a4.1023,4.1023,0,0,1,1.08.53,2.5942,2.5942,0,0,1,.76.83,2.4377,2.4377,0,0,1,.29,1.24,2.8771,2.8771,0,0,1-.39,1.56,3.0432,3.0432,0,0,1-1.02,1,4.291,4.291,0,0,1-1.42.53,8.433,8.433,0,0,1-1.57.1494,7.27,7.27,0,0,1-1.64-.18,4.0222,4.0222,0,0,1-1.38-.59,3.0112,3.0112,0,0,1-.96-1.08,3.7315,3.7315,0,0,1-.4-1.63h1.7A1.9149,1.9149,0,0,0,421.4443,430.9746Z"/></g></g></svg>